<?xml version="1.0" encoding="UTF-8"?>
<!DOCTYPE svg PUBLIC "-//W3C//DTD SVG 1.1//EN" "http://www.w3.org/Graphics/SVG/1.1/DTD/svg11.dtd">
<!-- Creator: CorelDRAW 2019 (64-Bit) -->
<svg xmlns="http://www.w3.org/2000/svg" xml:space="preserve" width="43.3492mm" height="43.3492mm" version="1.1" style="shape-rendering:geometricPrecision; text-rendering:geometricPrecision; image-rendering:optimizeQuality; fill-rule:evenodd; clip-rule:evenodd"
viewBox="0 0 4334.92 4334.92"
 xmlns:xlink="http://www.w3.org/1999/xlink"
 xmlns:xodm="http://www.corel.com/coreldraw/odm/2003">
 <defs>
  <style type="text/css">
   <![CDATA[
    .fil1 {fill:#E31E24}
    .fil0 {fill:#F3A5A2}
    .fil2 {fill:#EC6A6E}
   ]]>
  </style>
 </defs>
 <g id="Слой_x0020_1">
  <metadata id="CorelCorpID_0Corel-Layer"/>
  <rect class="fil0" x="25.39" y="0.24" width="4294.75" height="4334.7"/>
  <rect class="fil1" x="961.75" y="963.47" width="479.8" height="481.65"/>
  <rect class="fil2" x="1441.54" y="963.46" width="479.8" height="481.65"/>
  <rect class="fil2" x="961.72" y="481.85" width="479.8" height="481.65"/>
  <rect class="fil2" x="482.03" y="963.49" width="479.8" height="481.65"/>
  <rect class="fil2" x="961.83" y="1445.1" width="479.8" height="481.65"/>
  <rect class="fil1" x="1921.22" y="963.49" width="479.8" height="481.65"/>
  <rect class="fil2" x="1921.19" y="481.87" width="479.8" height="481.65"/>
  <rect class="fil2" x="1921.3" y="1445.12" width="479.8" height="481.65"/>
  <rect class="fil1" x="961.91" y="1926.74" width="479.8" height="481.65"/>
  <rect class="fil2" x="1441.71" y="1926.73" width="479.8" height="481.65"/>
  <rect class="fil2" x="482.2" y="1926.76" width="479.8" height="481.65"/>
  <rect class="fil2" x="961.99" y="2408.36" width="479.8" height="481.65"/>
  <rect class="fil1" x="1921.38" y="1926.76" width="479.8" height="481.65"/>
  <rect class="fil2" x="1921.47" y="2408.39" width="479.8" height="481.65"/>
  <rect class="fil1" x="2880.71" y="963.25" width="479.8" height="481.65"/>
  <rect class="fil2" x="3360.5" y="963.24" width="479.8" height="481.65"/>
  <rect class="fil2" x="2880.68" y="481.62" width="479.8" height="481.65"/>
  <rect class="fil2" x="2400.99" y="963.27" width="479.8" height="481.65"/>
  <rect class="fil2" x="2880.79" y="1444.88" width="479.8" height="481.65"/>
  <rect class="fil1" x="3840.18" y="963.27" width="479.8" height="481.65"/>
  <rect class="fil2" x="3840.15" y="481.65" width="479.8" height="481.65"/>
  <rect class="fil2" x="3840.26" y="1444.9" width="479.8" height="481.65"/>
  <rect class="fil1" x="2880.87" y="1926.52" width="479.8" height="481.65"/>
  <rect class="fil2" x="3360.67" y="1926.51" width="479.8" height="481.65"/>
  <rect class="fil2" x="2401.16" y="1926.53" width="479.8" height="481.65"/>
  <rect class="fil2" x="2880.95" y="2408.14" width="479.8" height="481.65"/>
  <rect class="fil1" x="3840.35" y="1926.54" width="479.8" height="481.65"/>
  <rect class="fil2" x="3840.43" y="2408.17" width="479.8" height="481.65"/>
  <rect class="fil1" x="2.26" y="963.49" width="479.8" height="481.65"/>
  <rect class="fil2" x="2.23" y="481.87" width="479.8" height="481.65"/>
  <rect class="fil2" x="2.34" y="1445.12" width="479.8" height="481.65"/>
  <rect class="fil1" x="2.43" y="1926.76" width="479.8" height="481.65"/>
  <rect class="fil2" x="2.51" y="2408.39" width="479.8" height="481.65"/>
  <rect class="fil1" x="961.73" y="0.22" width="479.8" height="481.65"/>
  <rect class="fil2" x="1441.53" y="0.21" width="479.8" height="481.65"/>
  <rect class="fil2" x="482.02" y="0.23" width="479.8" height="481.65"/>
  <rect class="fil1" x="1921.2" y="0.24" width="479.8" height="481.65"/>
  <rect class="fil1" x="2880.69" y="-0" width="479.8" height="481.65"/>
  <rect class="fil2" x="3360.49" y="-0.01" width="479.8" height="481.65"/>
  <rect class="fil2" x="2400.98" y="0.01" width="479.8" height="481.65"/>
  <rect class="fil1" x="3840.16" y="0.02" width="479.8" height="481.65"/>
  <rect class="fil1" x="2.24" y="0.24" width="479.8" height="481.65"/>
  <rect class="fil1" x="962" y="2890" width="479.8" height="481.65"/>
  <rect class="fil2" x="1441.79" y="2890" width="479.8" height="481.65"/>
  <rect class="fil2" x="482.28" y="2890.02" width="479.8" height="481.65"/>
  <rect class="fil1" x="1921.47" y="2890.03" width="479.8" height="481.65"/>
  <rect class="fil1" x="2880.96" y="2889.78" width="479.8" height="481.65"/>
  <rect class="fil2" x="3360.75" y="2889.78" width="479.8" height="481.65"/>
  <rect class="fil2" x="2401.24" y="2889.8" width="479.8" height="481.65"/>
  <rect class="fil1" x="3840.43" y="2889.81" width="479.8" height="481.65"/>
  <rect class="fil1" x="2.51" y="2890.03" width="479.8" height="481.65"/>
  <rect class="fil2" x="961.99" y="3371.62" width="479.8" height="481.65"/>
  <rect class="fil2" x="1921.47" y="3371.65" width="479.8" height="481.65"/>
  <rect class="fil2" x="2880.95" y="3371.4" width="479.8" height="481.65"/>
  <rect class="fil2" x="3840.43" y="3371.43" width="479.8" height="481.65"/>
  <rect class="fil2" x="2.51" y="3371.65" width="479.8" height="481.65"/>
  <rect class="fil1" x="962" y="3853.27" width="479.8" height="481.65"/>
  <rect class="fil2" x="1441.79" y="3853.26" width="479.8" height="481.65"/>
  <rect class="fil2" x="482.28" y="3853.28" width="479.8" height="481.65"/>
  <rect class="fil1" x="1921.47" y="3853.29" width="479.8" height="481.65"/>
  <rect class="fil1" x="2880.96" y="3853.04" width="479.8" height="481.65"/>
  <rect class="fil2" x="3360.75" y="3853.04" width="479.8" height="481.65"/>
  <rect class="fil2" x="2401.24" y="3853.06" width="479.8" height="481.65"/>
  <rect class="fil1" x="3840.43" y="3853.07" width="479.8" height="481.65"/>
  <rect class="fil1" x="2.51" y="3853.29" width="479.8" height="481.65"/>
 </g>
</svg>
